<?xml version="1.0" encoding="UTF-8"?>
<svg width="162px" height="34px" viewBox="0 0 162 34" version="1.1" xmlns="http://www.w3.org/2000/svg" xmlns:xlink="http://www.w3.org/1999/xlink">
    <!-- Generator: Sketch 63.1 (92452) - https://sketch.com -->
    <title>Group 31</title>
    <desc>Created with Sketch.</desc>
    <g id="Page-1" stroke="none" stroke-width="1" fill="none" fill-rule="evenodd">
        <g id="Group-31" fill="#FFFFFF">
            <path d="M41.3410666,19.303618 C43.9501355,19.303618 47.6706586,20.9042099 47.6706586,23.9603275 C47.6706586,27.1613436 43.9496343,28.0341727 41.3410666,28.0341727 L26.7530844,28.0341727 L38.4786503,7.652285 L31.7836967,7.652285 L16.6261215,34 L21.2638908,34 L23.3209915,34 L24.1251377,34 L34.8395692,34 L41.3410666,34 C48.3468364,34 54,31.5747947 54,24.0085432 C54,21.8743088 52.5504152,17.6547266 48.588406,16.4422917 C51.7288111,15.0355686 52.9853574,12.5052951 52.9853574,9.87003724 C52.9853574,3.00681185 48.0087892,0 41.3410666,0 L27.4286775,0 L20.3901638,12.2378869 L8.19933423,0 L0,0 L17.3890037,17.4562458 L7.87423431,34 L14.5689372,34 L29.2417027,8.4880509 L29.8042792,7.50990209 L30.7759872,5.82017412 L41.3410666,5.82017412 C45.3997203,5.82017412 46.6557654,8.45551582 46.6557654,10.0156904 C46.6557654,11.9719042 45.350688,13.6773966 41.3410666,13.6773966 L37.0729189,13.6773966 L33.8361197,19.303618 L41.3410666,19.303618 Z" id="Fill-12"></path>
            <path d="M68.375,21 L68.375,13.775 L75.35,3.65 L75.35,3.5 L71.375,3.5 L66.725,10.725 L62.275,3.5 L58.35,3.5 L58.35,3.65 L65.075,13.775 L65.075,21 L68.375,21 Z M79.525,21.275 C83.525,21.275 85.95,18.4 85.95,14.85 C85.95,11.325 83.425,8.425 79.5,8.425 C75.575,8.425 73.125,11.325 73.125,14.85 C73.125,18.4 75.525,21.275 79.525,21.275 Z M79.525,18.475 C77.3,18.475 76.175,16.725 76.175,14.85 C76.175,13 77.325,11.2 79.525,11.2 C81.575,11.2 82.875,13 82.875,14.85 C82.875,16.725 81.75,18.475 79.525,18.475 Z M93.225,21.2 C94.95,21.2 96.125,20.6 97.4,19.35 L97.6,21.025 L100.325,21.025 L100.325,8.675 L97.3,8.675 L97.3,14.975 C97.3,16.85 96.025,18.425 94.15,18.425 C92.2,18.425 91.175,17 91.175,15.125 L91.175,8.675 L88.125,8.675 L88.125,15.15 C88.125,18.975 90.275,21.2 93.225,21.2 Z M111.45,21 C115.075,21 118,19.75 118,15.85 C118,14.75 117.25,12.575 115.2,11.95 C116.825,11.225 117.475,9.925 117.475,8.575 C117.475,5.05 114.9,3.5 111.45,3.5 L103.15,3.5 L103.15,3.5 L103.15,21 L111.45,21 L111.45,21 Z M111.45,10.525 L106.4,10.525 L106.4,6.5 L111.45,6.5 C113.55,6.5 114.2,7.85 114.2,8.65 C114.2,9.65 113.525,10.525 111.45,10.525 Z M111.45,17.925 L106.4,17.925 L106.4,13.425 L111.45,13.425 C112.8,13.425 114.725,14.25 114.725,15.825 C114.725,17.475 112.8,17.925 111.45,17.925 Z M125.775,21.375 C127.15,21.35 129.075,20.65 129.775,19.2 L129.925,21 L132.8,21 L132.8,8.675 L129.875,8.675 L129.775,10.375 C129.075,9.15 127.5,8.375 125.85,8.375 C122.25,8.35 119.425,10.575 119.425,14.825 C119.425,19.15 122.125,21.4 125.775,21.375 Z M126.125,18.575 C124.1,18.575 122.475,17.175 122.475,14.825 C122.475,12.475 124.1,11.1 126.125,11.1 C130.925,11.1 130.925,18.575 126.125,18.575 Z M138.325,21 L138.325,14.7 C138.325,12.825 139.6,11.25 141.475,11.25 C143.425,11.25 144.45,12.675 144.45,14.55 L144.45,21 L147.5,21 L147.5,14.525 C147.5,10.65 145.175,8.475 142.275,8.475 C140.725,8.475 139.475,9.1 138.225,10.325 L138.025,8.65 L135.3,8.65 L135.3,21 L138.325,21 Z M153.1,21 L153.1,15.425 L157.925,21 L161.6,21 L161.6,20.775 L155.875,14.475 L160.9,8.85 L160.9,8.675 L157.25,8.675 L153.1,13.625 L153.1,3.525 L150.05,3.525 L150.05,21 L153.1,21 Z" id="YouBank" fill-rule="nonzero"></path>
            <path d="M138.65,34 C140.1,34 141.27,33.5 141.27,31.94 C141.27,31.5 140.97,30.63 140.15,30.38 C140.8,30.09 141.06,29.57 141.06,29.03 C141.06,27.62 140.03,27 138.65,27 L135.33,27 L135.33,27 L135.33,34 L138.65,34 L138.65,34 Z M138.65,29.81 L136.63,29.81 L136.63,28.2 L138.65,28.2 C139.49,28.2 139.75,28.74 139.75,29.06 C139.75,29.46 139.48,29.81 138.65,29.81 Z M138.65,32.77 L136.63,32.77 L136.63,30.97 L138.65,30.97 C139.19,30.97 139.96,31.3 139.96,31.93 C139.96,32.59 139.19,32.77 138.65,32.77 Z M147.42,34 L147.42,32.7 L143.49,32.7 L143.49,31.12 L147.28,31.12 L147.28,29.89 L143.49,29.89 L143.49,28.28 L147.42,28.28 L147.42,27 L142.18,27 L142.18,34 L142.18,34 L147.42,34 Z M151.98,34 L151.98,28.2 L154.2,28.2 L154.2,27 L148.44,27 L148.44,27 L148.44,28.2 L150.66,28.2 L150.66,34 L151.98,34 Z M155.71,34 L156.31,32.68 L159.97,32.68 L160.56,34 L162,34 L158.86,27 L157.42,27 L154.28,34 L155.71,34 Z M159.44,31.45 L156.84,31.45 L158.14,28.47 L159.44,31.45 Z" id="BETA" fill-rule="nonzero"></path>
        </g>
    </g>
</svg>